<svg xmlns="http://www.w3.org/2000/svg" viewBox="0 0 64 64">
  <rect x="1" y="1" width="62" height="62" rx="8" fill="#0e1520" stroke="#3a6080" stroke-width="2"/>
  <rect x="4" y="4" width="56" height="56" rx="6" fill="none" stroke="#2a5070" stroke-width="1" opacity="0.6"/>
  <!-- Target reticle on right side -->
  <circle cx="44" cy="32" r="18" fill="none" stroke="#ef9a9a" stroke-width="1.2" opacity="0.6"/>
  <circle cx="44" cy="32" r="10" fill="none" stroke="#ef9a9a" stroke-width="1.5" opacity="0.8"/>
  <circle cx="44" cy="32" r="3.5" fill="#ff5252"/>
  <line x1="44" y1="12" x2="44" y2="22" stroke="#ef9a9a" stroke-width="1.2"/>
  <line x1="44" y1="42" x2="44" y2="52" stroke="#ef9a9a" stroke-width="1.2"/>
  <line x1="24" y1="32" x2="34" y2="32" stroke="#ef9a9a" stroke-width="1.2"/>
  <line x1="54" y1="32" x2="62" y2="32" stroke="#ef9a9a" stroke-width="1.2"/>
  <!-- Small bow on left -->
  <path d="M 14,12 Q 4,28 14,50" fill="none" stroke="#8d6e63" stroke-width="4" stroke-linecap="round"/>
  <path d="M 14,12 Q 8,28 14,50" fill="none" stroke="#5d4037" stroke-width="1.5" stroke-linecap="round"/>
  <line x1="14" y1="12" x2="14" y2="50" stroke="#cfd8dc" stroke-width="1.2"/>
  <!-- Arrow aimed at center of reticle -->
  <line x1="14" y1="31" x2="42" y2="31" stroke="#a1887f" stroke-width="2.5" stroke-linecap="round"/>
  <polygon points="44,31 36,27 37,31 36,35" fill="#90a4ae"/>
  <line x1="12" y1="29" x2="10" y2="27" stroke="#ef9a9a" stroke-width="1.5" stroke-linecap="round"/>
  <line x1="12" y1="33" x2="10" y2="35" stroke="#ef9a9a" stroke-width="1.5" stroke-linecap="round"/>
</svg>
