<svg xmlns="http://www.w3.org/2000/svg" viewBox="0 0 64 64">
  <rect x="1" y="1" width="62" height="62" rx="8" fill="#0e1520" stroke="#3a6080" stroke-width="2"/>
  <rect x="4" y="4" width="56" height="56" rx="6" fill="none" stroke="#2a5070" stroke-width="1" opacity="0.6"/>
  <!-- Hourglass frame -->
  <rect x="18" y="8"  width="28" height="5" rx="2" fill="#78909c" stroke="#90a4ae" stroke-width="1"/>
  <rect x="18" y="51" width="28" height="5" rx="2" fill="#78909c" stroke="#90a4ae" stroke-width="1"/>
  <!-- Hourglass glass body -->
  <path d="M 20,13 L 44,13 L 36,32 L 44,51 L 20,51 L 28,32 Z" fill="#263238" stroke="#546e7a" stroke-width="1.2"/>
  <!-- Upper sand (mostly empty — focused) -->
  <path d="M 21,13 L 32,13 L 30,22 L 23,22 L 21,13 Z" fill="#ffa000" opacity="0.5"/>
  <!-- Neck with active falling sand -->
  <line x1="32" y1="30" x2="32" y2="38" stroke="#ffa000" stroke-width="2.5" stroke-linecap="round" opacity="0.8"/>
  <!-- Lower sand (accumulating) -->
  <path d="M 22,51 L 42,51 L 40,44 L 34,44 L 32,40 L 30,44 L 24,44 L 22,51 Z" fill="#ffa000" opacity="0.8"/>
  <!-- Sparkle of energy around the neck -->
  <circle cx="32" cy="32" r="3.5" fill="#ffcc02" opacity="0.8"/>
  <line x1="26" y1="32" x2="22" y2="32" stroke="#ffd54f" stroke-width="1.5" stroke-linecap="round" opacity="0.7"/>
  <line x1="38" y1="32" x2="42" y2="32" stroke="#ffd54f" stroke-width="1.5" stroke-linecap="round" opacity="0.7"/>
  <line x1="32" y1="26" x2="32" y2="22" stroke="#ffd54f" stroke-width="1.5" stroke-linecap="round" opacity="0.7"/>
</svg>
