<svg xmlns="http://www.w3.org/2000/svg" viewBox="0 0 64 64">
  <rect x="1" y="1" width="62" height="62" rx="8" fill="#1a0800" stroke="#aa4400" stroke-width="2"/>
  <rect x="4" y="4" width="56" height="56" rx="6" fill="none" stroke="#662200" stroke-width="1" opacity="0.6"/>
  <!-- Flame trail -->
  <path d="M 6,40 Q 12,28 20,32 Q 16,22 24,18" fill="none" stroke="#bf360c" stroke-width="4" stroke-linecap="round"/>
  <path d="M 6,40 Q 14,30 22,34 Q 18,24 26,20" fill="none" stroke="#e64a19" stroke-width="2.5" stroke-linecap="round"/>
  <path d="M 6,40 Q 16,32 24,36 Q 20,26 28,22" fill="none" stroke="#ff6d00" stroke-width="1.5" stroke-linecap="round"/>
  <!-- Bolt core -->
  <line x1="14" y1="44" x2="50" y2="14" stroke="#ff6d00" stroke-width="5" stroke-linecap="round"/>
  <line x1="14" y1="44" x2="50" y2="14" stroke="#ff9100" stroke-width="2.5" stroke-linecap="round"/>
  <line x1="14" y1="44" x2="50" y2="14" stroke="#ffd740" stroke-width="1" stroke-linecap="round"/>
  <!-- Bolt tip flame -->
  <circle cx="50" cy="14" r="8" fill="#bf360c" opacity="0.6"/>
  <circle cx="50" cy="14" r="5" fill="#ff6d00"/>
  <circle cx="50" cy="14" r="3" fill="#ffd740"/>
  <!-- Ember particles -->
  <circle cx="42" cy="10" r="1.5" fill="#ffa726" opacity="0.8"/>
  <circle cx="56" cy="10" r="1"   fill="#ff7043" opacity="0.7"/>
  <circle cx="60" cy="16" r="1.2" fill="#ffa726" opacity="0.6"/>
  <circle cx="44" cy="22" r="1"   fill="#ff7043" opacity="0.5"/>
</svg>
