<svg xmlns="http://www.w3.org/2000/svg" viewBox="0 0 64 64">
  <rect x="0" y="0" width="64" height="64" rx="8" fill="#1e2a3a" stroke="#3a5a80" stroke-width="1.5"/>
  <path d="M 16,36 L 20,28 Q 20,20 28,20 Q 36,20 36,28 L 40,28 Q 40,36 32,36 Z" fill="#ff8a65" stroke="#ff7043" stroke-width="1"/>
  <circle cx="28" cy="16" r="8" fill="#ff8a65" stroke="#ff7043" stroke-width="1"/>
  <line x1="16" y1="36" x2="12" y2="56" stroke="#ff8a65" stroke-width="6" stroke-linecap="round"/>
  <line x1="36" y1="36" x2="40" y2="56" stroke="#ff8a65" stroke-width="6" stroke-linecap="round"/>
  <line x1="10" y1="56" x2="44" y2="56" stroke="#ff8a65" stroke-width="6" stroke-linecap="round" stroke-linejoin="round"/>
  <path d="M 40,22 Q 48,18 52,22" fill="none" stroke="#ffd54f" stroke-width="2.5" stroke-linecap="round"/>
  <path d="M 42,16 Q 52,12 56,16" fill="none" stroke="#ffd54f" stroke-width="2"   stroke-linecap="round"/>
  <path d="M 44,10 Q 54,6 58,10"  fill="none" stroke="#ffd54f" stroke-width="1.5" stroke-linecap="round" opacity="0.7"/>
  <line x1="32" y1="28" x2="34" y2="32" stroke="#d84404" stroke-width="2" stroke-linecap="round"/>
  <line x1="36" y1="28" x2="38" y2="24" stroke="#d84404" stroke-width="1.5" stroke-linecap="round"/>
</svg>
