<svg xmlns="http://www.w3.org/2000/svg" viewBox="0 0 64 64">
  <rect x="0" y="0" width="64" height="64" rx="8" fill="#1e2a3a" stroke="#3a5a80" stroke-width="1.5"/>
  <circle cx="46" cy="32" r="16" fill="none" stroke="#ef9a9a" stroke-width="1.2" opacity="0.7"/>
  <circle cx="46" cy="32" r="9"  fill="none" stroke="#ef9a9a" stroke-width="1.2" opacity="0.9"/>
  <circle cx="46" cy="32" r="3"  fill="#ff5252"/>
  <line x1="46" y1="14" x2="46" y2="23" stroke="#ef9a9a" stroke-width="1.2"/>
  <line x1="46" y1="41" x2="46" y2="50" stroke="#ef9a9a" stroke-width="1.2"/>
  <line x1="28" y1="32" x2="37" y2="32" stroke="#ef9a9a" stroke-width="1.2"/>
  <line x1="55" y1="32" x2="62" y2="32" stroke="#ef9a9a" stroke-width="1.2"/>
  <path d="M 16,8 Q 4,22 16,46" fill="none" stroke="#8d6e63" stroke-width="4.5" stroke-linecap="round"/>
  <line x1="16" y1="8"  x2="18" y2="27" stroke="#b0bec5" stroke-width="1.5"/>
  <line x1="16" y1="46" x2="18" y2="27" stroke="#b0bec5" stroke-width="1.5"/>
  <line x1="6"  y1="25" x2="44" y2="32" stroke="#8d6e63" stroke-width="3"   stroke-linecap="round"/>
  <polygon points="46,32 36,28 36,36" fill="#ff8a65"/>
  <line x1="6"  y1="22" x2="14" y2="25" stroke="#90a4ae" stroke-width="1.5" stroke-linecap="round"/>
  <line x1="6"  y1="28" x2="14" y2="25" stroke="#90a4ae" stroke-width="1.5" stroke-linecap="round"/>
</svg>
