<svg xmlns="http://www.w3.org/2000/svg" viewBox="0 0 64 64">
  <rect x="0" y="0" width="64" height="64" rx="8" fill="#1e2a3a" stroke="#3a5a80" stroke-width="1.5"/>
  <rect x="8"  y="18" width="10" height="4" rx="2" fill="#6d4c41"/>
  <rect x="16" y="16" width="3"  height="8" fill="#546e7a"/>
  <polygon points="54,10 19,18 19,26" fill="#cfd8dc" stroke="#90a4ae" stroke-width="0.6"/>
  <line x1="53" y1="10" x2="20" y2="18" stroke="#eceff1" stroke-width="0.8" opacity="0.5"/>
  <rect x="10" y="30" width="10" height="4" rx="2" fill="#6d4c41"/>
  <rect x="18" y="28" width="3"  height="8" fill="#546e7a"/>
  <polygon points="56,22 21,30 21,38" fill="#cfd8dc" stroke="#90a4ae" stroke-width="0.6"/>
  <line x1="55" y1="22" x2="22" y2="30" stroke="#eceff1" stroke-width="0.8" opacity="0.5"/>
  <rect x="6"  y="42" width="10" height="4" rx="2" fill="#6d4c41"/>
  <rect x="14" y="40" width="3"  height="8" fill="#546e7a"/>
  <polygon points="52,34 17,42 17,50" fill="#cfd8dc" stroke="#90a4ae" stroke-width="0.6"/>
  <line x1="51" y1="34" x2="18" y2="42" stroke="#eceff1" stroke-width="0.8" opacity="0.5"/>
  <line x1="56" y1="12" x2="62" y2="8"  stroke="#ffd54f" stroke-width="1.2" opacity="0.6"/>
  <line x1="58" y1="24" x2="62" y2="22" stroke="#ffd54f" stroke-width="1.2" opacity="0.6"/>
  <line x1="54" y1="36" x2="60" y2="32" stroke="#ffd54f" stroke-width="1.2" opacity="0.6"/>
</svg>
