<svg xmlns="http://www.w3.org/2000/svg" viewBox="0 0 64 64">
  <rect x="0" y="0" width="64" height="64" rx="8" fill="#1e2a3a" stroke="#3a5a80" stroke-width="1.5"/>
  <line x1="6"  y1="27" x2="6"  y2="37" stroke="#90a4ae" stroke-width="1.5" stroke-linecap="round" opacity="0.5"/>
  <line x1="10" y1="27" x2="6"  y2="27" stroke="#90a4ae" stroke-width="1.5" stroke-linecap="round" opacity="0.5"/>
  <line x1="10" y1="37" x2="6"  y2="37" stroke="#90a4ae" stroke-width="1.5" stroke-linecap="round" opacity="0.5"/>
  <rect x="10" y="26" width="14" height="12" rx="5" fill="#6d4c41" stroke="#5d4037" stroke-width="1"/>
  <line x1="14" y1="29" x2="20" y2="29" stroke="#4e342e" stroke-width="1.2"/>
  <line x1="14" y1="33" x2="20" y2="33" stroke="#4e342e" stroke-width="1.2"/>
  <circle cx="10" cy="32" r="4" fill="#78909c" stroke="#90a4ae" stroke-width="1"/>
  <rect x="22" y="28" width="4" height="8" fill="#546e7a" stroke="#78909c" stroke-width="0.8"/>
  <rect x="22" y="26" width="4" height="2" rx="1" fill="#78909c"/>
  <rect x="22" y="36" width="4" height="2" rx="1" fill="#78909c"/>
  <polygon points="60,32 26,26 26,38" fill="#cfd8dc" stroke="#90a4ae" stroke-width="0.8"/>
  <line x1="59" y1="31" x2="28" y2="26" stroke="#eceff1" stroke-width="0.8" opacity="0.5"/>
  <line x1="58" y1="34" x2="42" y2="30" stroke="#90a4ae" stroke-width="0.6" opacity="0.4"/>
</svg>
