<svg xmlns="http://www.w3.org/2000/svg" viewBox="0 0 64 64">
  <rect x="0" y="0" width="64" height="64" rx="8" fill="#1e2a3a" stroke="#3a5a80" stroke-width="1.5"/>
  <rect x="26" y="8"  width="12" height="48" rx="4" fill="#fbc02d" stroke="#f9a825" stroke-width="1"/>
  <rect x="8"  y="24" width="48" height="12" rx="4" fill="#fbc02d" stroke="#f9a825" stroke-width="1"/>
  <rect x="28" y="10" width="8"  height="44" rx="3" fill="#fff176"/>
  <rect x="10" y="26" width="44" height="8"  rx="3" fill="#fff176"/>
  <circle cx="32" cy="32" r="5" fill="#ffffff" opacity="0.6"/>
  <line x1="10" y1="10" x2="16" y2="16" stroke="#fff9c4" stroke-width="2" stroke-linecap="round"/>
  <line x1="10" y1="16" x2="16" y2="10" stroke="#fff9c4" stroke-width="2" stroke-linecap="round"/>
  <line x1="48" y1="10" x2="54" y2="16" stroke="#fff9c4" stroke-width="2" stroke-linecap="round"/>
  <line x1="48" y1="16" x2="54" y2="10" stroke="#fff9c4" stroke-width="2" stroke-linecap="round"/>
  <line x1="10" y1="48" x2="16" y2="54" stroke="#fff9c4" stroke-width="2" stroke-linecap="round"/>
  <line x1="10" y1="54" x2="16" y2="48" stroke="#fff9c4" stroke-width="2" stroke-linecap="round"/>
  <line x1="48" y1="48" x2="54" y2="54" stroke="#fff9c4" stroke-width="2" stroke-linecap="round"/>
  <line x1="48" y1="54" x2="54" y2="48" stroke="#fff9c4" stroke-width="2" stroke-linecap="round"/>
</svg>
