<svg xmlns="http://www.w3.org/2000/svg" viewBox="0 0 64 64">
  <rect x="0" y="0" width="64" height="64" rx="8" fill="#1e2a3a" stroke="#3a5a80" stroke-width="1.5"/>
  <rect x="29" y="28" width="6" height="22" rx="2" fill="#6d4c41" stroke="#5d4037" stroke-width="0.8"/>
  <line x1="29" y1="34" x2="35" y2="34" stroke="#4e342e" stroke-width="1.2"/>
  <line x1="29" y1="40" x2="35" y2="40" stroke="#4e342e" stroke-width="1.2"/>
  <line x1="29" y1="46" x2="35" y2="46" stroke="#4e342e" stroke-width="1.2"/>
  <ellipse cx="32" cy="53" rx="5" ry="3.5" fill="#78909c" stroke="#b0bec5" stroke-width="1"/>
  <rect x="30" y="20" width="4" height="9" fill="#90a4ae"/>
  <rect x="14" y="6" width="36" height="16" rx="3" fill="#607d8b" stroke="#90a4ae" stroke-width="1.5"/>
  <rect x="16" y="7" width="32" height="5" rx="2" fill="#b0bec5" opacity="0.3"/>
  <rect x="6"  y="9"  width="10" height="5" rx="2" fill="#78909c" stroke="#90a4ae" stroke-width="1"/>
  <rect x="6"  y="16" width="10" height="5" rx="2" fill="#78909c" stroke="#90a4ae" stroke-width="1"/>
  <rect x="48" y="9"  width="10" height="5" rx="2" fill="#78909c" stroke="#90a4ae" stroke-width="1"/>
  <rect x="48" y="16" width="10" height="5" rx="2" fill="#78909c" stroke="#90a4ae" stroke-width="1"/>
  <polygon points="22,7 18,5 18,2 26,2 26,5" fill="#78909c"/>
  <polygon points="42,7 46,5 46,2 38,2 38,5" fill="#78909c"/>
  <line x1="16" y1="54" x2="48" y2="54" stroke="#455a64" stroke-width="2.5" stroke-linecap="round"/>
  <line x1="14" y1="51" x2="22" y2="44" stroke="#ffd54f" stroke-width="2" stroke-linecap="round"/>
  <line x1="32" y1="55" x2="32" y2="47" stroke="#ffd54f" stroke-width="2" stroke-linecap="round"/>
  <line x1="50" y1="51" x2="42" y2="44" stroke="#ffd54f" stroke-width="2" stroke-linecap="round"/>
  <line x1="8"  y1="49" x2="14" y2="44" stroke="#ffd54f" stroke-width="1.2" stroke-linecap="round"/>
  <line x1="56" y1="49" x2="50" y2="44" stroke="#ffd54f" stroke-width="1.2" stroke-linecap="round"/>
</svg>
