<svg xmlns="http://www.w3.org/2000/svg" viewBox="0 0 64 64">
  <rect x="0" y="0" width="64" height="64" rx="8" fill="#1e2a3a" stroke="#3a5a80" stroke-width="1.5"/>
  <rect x="30" y="26" width="5" height="20" rx="2" fill="#6d4c41" stroke="#5d4037" stroke-width="0.8"/>
  <ellipse cx="32" cy="49" rx="4" ry="3" fill="#78909c" stroke="#b0bec5" stroke-width="1"/>
  <rect x="30" y="19" width="4" height="8" fill="#90a4ae"/>
  <rect x="12" y="5" width="40" height="16" rx="3" fill="#546e7a" stroke="#78909c" stroke-width="1.5"/>
  <rect x="14" y="6" width="36" height="5" rx="2" fill="#90a4ae" opacity="0.3"/>
  <rect x="4"  y="7"  width="10" height="5" rx="2" fill="#607d8b" stroke="#78909c" stroke-width="1"/>
  <rect x="4"  y="14" width="10" height="5" rx="2" fill="#607d8b" stroke="#78909c" stroke-width="1"/>
  <rect x="50" y="7"  width="10" height="5" rx="2" fill="#607d8b" stroke="#78909c" stroke-width="1"/>
  <rect x="50" y="14" width="10" height="5" rx="2" fill="#607d8b" stroke="#78909c" stroke-width="1"/>
  <polygon points="20,6 16,3 14,1 24,1 24,4" fill="#607d8b"/>
  <polygon points="44,6 48,3 50,1 40,1 40,4" fill="#607d8b"/>
  <polygon points="32,5 30,1 34,1" fill="#78909c" stroke="#90a4ae" stroke-width="1"/>
  <ellipse cx="32" cy="23" rx="18" ry="5" fill="none" stroke="#ffd54f" stroke-width="1.5" opacity="0.6"/>
  <line x1="16" y1="56" x2="48" y2="56" stroke="#37474f" stroke-width="3" stroke-linecap="round"/>
  <line x1="10" y1="52" x2="20" y2="42" stroke="#ffd54f" stroke-width="2.5" stroke-linecap="round"/>
  <line x1="32" y1="57" x2="32" y2="47" stroke="#ffd54f" stroke-width="2.5" stroke-linecap="round"/>
  <line x1="54" y1="52" x2="44" y2="42" stroke="#ffd54f" stroke-width="2.5" stroke-linecap="round"/>
  <line x1="6"  y1="48" x2="14" y2="42" stroke="#ffd54f" stroke-width="1.5" stroke-linecap="round"/>
  <line x1="58" y1="48" x2="50" y2="42" stroke="#ffd54f" stroke-width="1.5" stroke-linecap="round"/>
  <line x1="18" y1="60" x2="26" y2="50" stroke="#ffd54f" stroke-width="1.2" stroke-linecap="round"/>
  <line x1="46" y1="60" x2="38" y2="50" stroke="#ffd54f" stroke-width="1.2" stroke-linecap="round"/>
</svg>
