<svg xmlns="http://www.w3.org/2000/svg" viewBox="0 0 64 64">
  <rect x="0" y="0" width="64" height="64" rx="8" fill="#1e2a3a" stroke="#3a5a80" stroke-width="1.5"/>
  <rect x="29" y="30" width="6" height="22" rx="2" fill="#6d4c41" stroke="#5d4037" stroke-width="0.8"/>
  <line x1="29" y1="36" x2="35" y2="36" stroke="#4e342e" stroke-width="1.2"/>
  <line x1="29" y1="42" x2="35" y2="42" stroke="#4e342e" stroke-width="1.2"/>
  <line x1="29" y1="48" x2="35" y2="48" stroke="#4e342e" stroke-width="1.2"/>
  <ellipse cx="32" cy="55" rx="5" ry="3.5" fill="#78909c" stroke="#b0bec5" stroke-width="1"/>
  <rect x="30" y="22" width="4" height="9" fill="#90a4ae"/>
  <rect x="18" y="8" width="28" height="16" rx="3" fill="#78909c" stroke="#b0bec5" stroke-width="1.5"/>
  <rect x="20" y="9" width="24" height="5" rx="2" fill="#cfd8dc" opacity="0.35"/>
  <rect x="9"  y="11" width="11" height="5" rx="2" fill="#90a4ae" stroke="#b0bec5" stroke-width="1"/>
  <rect x="44" y="11" width="11" height="5" rx="2" fill="#90a4ae" stroke="#b0bec5" stroke-width="1"/>
  <rect x="9"  y="18" width="11" height="5" rx="2" fill="#90a4ae" stroke="#b0bec5" stroke-width="1"/>
  <rect x="44" y="18" width="11" height="5" rx="2" fill="#90a4ae" stroke="#b0bec5" stroke-width="1"/>
  <polygon points="32,2 26,9 38,9" fill="#90a4ae" stroke="#b0bec5" stroke-width="1"/>
  <line x1="18" y1="52" x2="25" y2="45" stroke="#ffd54f" stroke-width="2" stroke-linecap="round"/>
  <line x1="32" y1="55" x2="32" y2="47" stroke="#ffd54f" stroke-width="2" stroke-linecap="round"/>
  <line x1="46" y1="52" x2="39" y2="45" stroke="#ffd54f" stroke-width="2" stroke-linecap="round"/>
  <line x1="13" y1="50" x2="18" y2="44" stroke="#ffd54f" stroke-width="1.2" stroke-linecap="round"/>
  <line x1="51" y1="50" x2="46" y2="44" stroke="#ffd54f" stroke-width="1.2" stroke-linecap="round"/>
</svg>
