<svg xmlns="http://www.w3.org/2000/svg" viewBox="0 0 64 64">
  <rect x="0" y="0" width="64" height="64" rx="8" fill="#1e2a3a" stroke="#3a5a80" stroke-width="1.5"/>
  <rect x="8"  y="18" width="22" height="30" rx="2" fill="#3949ab" stroke="#7986cb" stroke-width="1.5"/>
  <rect x="34" y="18" width="22" height="30" rx="2" fill="#3949ab" stroke="#7986cb" stroke-width="1.5"/>
  <rect x="28" y="16" width="8"  height="34" rx="2" fill="#5c6bc0"/>
  <line x1="12" y1="26" x2="26" y2="26" stroke="#9fa8da" stroke-width="1" opacity="0.7"/>
  <line x1="12" y1="30" x2="26" y2="30" stroke="#9fa8da" stroke-width="1" opacity="0.7"/>
  <line x1="12" y1="34" x2="26" y2="34" stroke="#9fa8da" stroke-width="1" opacity="0.7"/>
  <path d="M44 46 Q40 40 44 32 Q46 38 50 34 Q48 40 46 38 Q48 44 44 46" fill="#ff7043"/>
  <path d="M44 46 Q42 42 44 36 Q46 40 44 46" fill="#ffd54f"/>
</svg>
