<svg xmlns="http://www.w3.org/2000/svg" viewBox="0 0 64 64">
  <rect x="0" y="0" width="64" height="64" rx="8" fill="#1e2a3a" stroke="#3a5a80" stroke-width="1.5"/>
  <polygon points="32,6 56,20 56,42 32,58 8,42 8,20" fill="#061830" stroke="#4dd0e1" stroke-width="2.5"/>
  <polygon points="32,12 50,22 50,40 32,52 14,40 14,22" fill="none"   stroke="#80deea" stroke-width="1" opacity="0.5"/>
  <polygon points="32,18 44,25 44,39 32,46 20,39 20,25" fill="#0a2236" stroke="#80deea" stroke-width="0.8" opacity="0.4"/>
  <line x1="32" y1="12" x2="32" y2="52" stroke="#4dd0e1" stroke-width="0.8" opacity="0.3"/>
  <line x1="8"  y1="20" x2="56" y2="42" stroke="#4dd0e1" stroke-width="0.8" opacity="0.3"/>
  <line x1="56" y1="20" x2="8"  y2="42" stroke="#4dd0e1" stroke-width="0.8" opacity="0.3"/>
  <circle cx="32" cy="32" r="8"  fill="#0a2440" stroke="#4dd0e1" stroke-width="1.5"/>
  <circle cx="32" cy="32" r="4"  fill="#0d3a60"/>
  <circle cx="30" cy="30" r="1.5" fill="#80deea" opacity="0.6"/>
  <line x1="32" y1="6"  x2="28" y2="12" stroke="#4dd0e1" stroke-width="1.5" stroke-linecap="round" opacity="0.8"/>
  <line x1="32" y1="6"  x2="36" y2="12" stroke="#4dd0e1" stroke-width="1.5" stroke-linecap="round" opacity="0.8"/>
</svg>
