<svg xmlns="http://www.w3.org/2000/svg" viewBox="0 0 64 64">
  <rect x="0" y="0" width="64" height="64" rx="8" fill="#2e1100" stroke="#c03800" stroke-width="1.5"/>
  <path d="M 36,50 Q 20,44 12,36 Q 4,28 8,16" fill="none" stroke="#ff7043" stroke-width="8" stroke-linecap="round" opacity="0.3"/>
  <path d="M 36,50 Q 22,44 14,36 Q 8,28 10,18" fill="none" stroke="#ff9800" stroke-width="4" stroke-linecap="round" opacity="0.25"/>
  <circle cx="42" cy="22" r="18" fill="#7f1000"/>
  <circle cx="42" cy="22" r="14" fill="#bf360c"/>
  <circle cx="42" cy="22" r="10" fill="#e64a19"/>
  <circle cx="42" cy="22" r="6"  fill="#ff7043"/>
  <circle cx="42" cy="22" r="3"  fill="#ffccbc"/>
  <circle cx="38" cy="18" r="3"  fill="#ffffff" opacity="0.3"/>
  <path d="M 30,32 Q 22,46 18,54" fill="none" stroke="#ff7043" stroke-width="3" stroke-linecap="round" opacity="0.5"/>
  <path d="M 34,36 Q 28,48 26,58" fill="none" stroke="#ff9800" stroke-width="2" stroke-linecap="round" opacity="0.35"/>
  <circle cx="20" cy="54" r="2.5" fill="#ffd54f" opacity="0.6"/>
  <circle cx="26" cy="60" r="1.5" fill="#ff9800" opacity="0.4"/>
</svg>
