<svg xmlns="http://www.w3.org/2000/svg" viewBox="0 0 64 64">
  <rect x="0" y="0" width="64" height="64" rx="8" fill="#1e2a3a" stroke="#3a5a80" stroke-width="1.5"/>
  <circle cx="32" cy="36" r="20" fill="none" stroke="#7986cb" stroke-width="1.5" stroke-dasharray="4,5"/>
  <circle cx="32" cy="36" r="14" fill="none" stroke="#9fa8da" stroke-width="1"   stroke-dasharray="2,4" opacity="0.6"/>
  <circle cx="32" cy="14" r="3" fill="#ce93d8" stroke="#9c27b0" stroke-width="1"/>
  <circle cx="51" cy="44" r="3" fill="#ce93d8" stroke="#9c27b0" stroke-width="1"/>
  <circle cx="13" cy="44" r="3" fill="#ce93d8" stroke="#9c27b0" stroke-width="1"/>
  <line x1="32" y1="17" x2="32" y2="23" stroke="#ce93d8" stroke-width="1.5" stroke-linecap="round" opacity="0.7"/>
  <line x1="49" y1="42" x2="44" y2="38" stroke="#ce93d8" stroke-width="1.5" stroke-linecap="round" opacity="0.7"/>
  <line x1="15" y1="42" x2="20" y2="38" stroke="#ce93d8" stroke-width="1.5" stroke-linecap="round" opacity="0.7"/>
  <circle cx="32" cy="29" r="7" fill="#3949ab" stroke="#7986cb" stroke-width="1.2"/>
  <circle cx="32" cy="29" r="3" fill="#283593"/>
  <path d="M 19,38 Q 20,34 32,30 Q 44,34 45,38" fill="#3949ab" stroke="#5c6bc0" stroke-width="1"/>
  <line x1="14" y1="44" x2="19" y2="38" stroke="#3949ab" stroke-width="5" stroke-linecap="round"/>
  <line x1="50" y1="44" x2="45" y2="38" stroke="#3949ab" stroke-width="5" stroke-linecap="round"/>
  <line x1="14" y1="44" x2="50" y2="44" stroke="#3949ab" stroke-width="5" stroke-linecap="round"/>
</svg>
