<svg xmlns="http://www.w3.org/2000/svg" viewBox="0 0 64 64">
  <rect x="0" y="0" width="64" height="64" rx="8" fill="#1e2a3a" stroke="#3a5a80" stroke-width="1.5"/>
  <line x1="36" y1="32" x2="18" y2="50" stroke="#7d5a3a" stroke-width="4" stroke-linecap="round"/>
  <circle cx="14" cy="54" r="5" fill="#607d8b" stroke="#90a4ae" stroke-width="1"/>
  <polygon points="26,22 22,27 40,38 44,33" fill="#546e7a" stroke="#78909c" stroke-width="0.8"/>
  <polygon points="54,10 38,26 34,30" fill="#b0bec5" stroke="#78909c" stroke-width="0.8"/>
  <line x1="53" y1="11" x2="37" y2="27" stroke="#eceff1" stroke-width="0.9" opacity="0.5"/>
  <rect x="6"  y="26" width="8" height="22" rx="3" fill="#2e7a2e" stroke="#4caf50" stroke-width="1.5"/>
  <rect x="2"  y="30" width="16" height="14" rx="3" fill="#2e7a2e" stroke="#4caf50" stroke-width="1.5"/>
  <rect x="4"  y="28" width="12" height="18" rx="2" fill="#388e3c"/>
  <rect x="7"  y="28" width="6"  height="18" rx="1" fill="#66bb6a" opacity="0.5"/>
  <rect x="4"  y="31" width="12" height="6"  rx="1" fill="#66bb6a" opacity="0.5"/>
  <line x1="6"  y1="24" x2="6"  y2="26" stroke="#66bb6a" stroke-width="1.5" stroke-linecap="round"/>
  <line x1="14" y1="24" x2="14" y2="26" stroke="#66bb6a" stroke-width="1.5" stroke-linecap="round"/>
  <line x1="4"  y1="25" x2="16" y2="25" stroke="#66bb6a" stroke-width="1.5" stroke-linecap="round"/>
</svg>
