<svg xmlns="http://www.w3.org/2000/svg" viewBox="0 0 64 64">
  <rect x="0" y="0" width="64" height="64" rx="8" fill="#12082e" stroke="#6a00cc" stroke-width="1.5"/>
  <circle cx="46" cy="20" r="10" fill="#1a0a3a" stroke="#7c4dff" stroke-width="1.5"/>
  <circle cx="46" cy="20" r="6"  fill="#4a148c"/>
  <circle cx="46" cy="20" r="2.5" fill="#ea80fc"/>
  <circle cx="18" cy="42" r="7" fill="#b71c1c" stroke="#ef5350" stroke-width="1.5" opacity="0.8"/>
  <circle cx="18" cy="42" r="4" fill="#c62828"/>
  <path d="M 44,28 Q 38,30 32,32 Q 26,34 22,38" fill="none" stroke="#7c4dff" stroke-width="3" stroke-linecap="round" opacity="0.8"/>
  <path d="M 46,30 Q 40,32 34,34 Q 28,36 24,40" fill="none" stroke="#ea80fc" stroke-width="2" stroke-linecap="round" opacity="0.6"/>
  <path d="M 42,26 Q 36,30 30,32 Q 24,34 20,38" fill="none" stroke="#ef5350" stroke-width="2" stroke-linecap="round" opacity="0.5" stroke-dasharray="3,3"/>
  <circle cx="30" cy="34" r="2" fill="#ef5350" opacity="0.6"/>
  <circle cx="24" cy="38" r="1.5" fill="#ef5350" opacity="0.4"/>
  <circle cx="50" cy="14" r="2" fill="#ea80fc" opacity="0.5"/>
  <circle cx="52" cy="22" r="1.5" fill="#7c4dff" opacity="0.5"/>
</svg>
