<svg xmlns="http://www.w3.org/2000/svg" viewBox="0 0 64 64">
  <rect x="0" y="0" width="64" height="64" rx="8" fill="#12082e" stroke="#6a00cc" stroke-width="1.5"/>
  <circle cx="32" cy="32" r="22" fill="#1a0a3a" stroke="#7c4dff" stroke-width="2"/>
  <circle cx="32" cy="32" r="16" fill="#2a0e50"/>
  <circle cx="32" cy="32" r="10" fill="#4a148c"/>
  <path d="M 32,22 Q 42,24 40,32 Q 38,40 30,40 Q 22,40 22,32 Q 22,24 32,22" fill="none" stroke="#ea80fc" stroke-width="2" stroke-linecap="round"/>
  <path d="M 32,26 Q 38,28 36,32 Q 34,36 30,36 Q 26,36 26,32" fill="none" stroke="#ce93d8" stroke-width="1.5"/>
  <circle cx="32" cy="32" r="3"  fill="#ea80fc"/>
  <circle cx="28" cy="26" r="2"  fill="#e1bee7" opacity="0.5"/>
  <line x1="32" y1="8"  x2="32" y2="12" stroke="#7c4dff" stroke-width="2" stroke-linecap="round" opacity="0.7"/>
  <line x1="14" y1="14" x2="18" y2="18" stroke="#7c4dff" stroke-width="1.5" stroke-linecap="round" opacity="0.6"/>
  <line x1="50" y1="14" x2="46" y2="18" stroke="#7c4dff" stroke-width="1.5" stroke-linecap="round" opacity="0.6"/>
  <line x1="56" y1="32" x2="52" y2="32" stroke="#7c4dff" stroke-width="2" stroke-linecap="round" opacity="0.7"/>
  <line x1="8"  y1="32" x2="12" y2="32" stroke="#7c4dff" stroke-width="2" stroke-linecap="round" opacity="0.7"/>
</svg>
