<svg xmlns="http://www.w3.org/2000/svg" viewBox="0 0 64 64">
  <rect x="0" y="0" width="64" height="64" rx="8" fill="#12082e" stroke="#6a00cc" stroke-width="1.5"/>
  <circle cx="40" cy="44" r="12" fill="#1a0a3a" stroke="#7c4dff" stroke-width="2"/>
  <circle cx="40" cy="44" r="8"  fill="#2a0e50"/>
  <path d="M 40,38 A 6,6 0 0 1 44,50 Q 40,54 36,52 A 6,6 0 0 1 40,38" fill="#4a148c"/>
  <circle cx="40" cy="44" r="2"  fill="#ea80fc"/>
  <path d="M 28,6 Q 16,6 16,14 L 16,34 Q 16,44 24,44" fill="none" stroke="#4a148c" stroke-width="1.5"/>
  <path d="M 28,4 Q 12,4 12,14 L 12,34 Q 12,46 24,46" fill="none" stroke="#7c4dff" stroke-width="1"/>
  <path d="M 28,6 Q 28,6 26,12 Q 22,16 28,6" fill="none" stroke="#7c4dff" stroke-width="1" stroke-linecap="round"/>
  <path d="M 22,4 Q 16,8 16,14 L 18,30 Q 20,38 28,40" fill="none" stroke="#ea80fc" stroke-width="1" stroke-linecap="round" opacity="0.5"/>
  <path d="M 24,6 Q 24,2 28,2 Q 36,2 36,10 L 36,30 Q 36,42 28,46 Q 22,46 20,42" fill="#b3e5fc" stroke="#80d8ff" stroke-width="1.2"/>
  <circle cx="24" cy="14" r="2" fill="#1e2a3a"/>
  <circle cx="32" cy="14" r="2" fill="#1e2a3a"/>
  <path d="M 22,20 Q 28,24 34,20" fill="none" stroke="#1e2a3a" stroke-width="1.5" stroke-linecap="round"/>
  <path d="M 22,36 Q 26,40 30,38 Q 32,36 28,44 Q 24,46 20,42" fill="#90caf9" stroke="#80d8ff" stroke-width="0.8"/>
  <line x1="34" y1="32" x2="40" y2="38" stroke="#ea80fc" stroke-width="2" stroke-linecap="round" opacity="0.7" stroke-dasharray="2,3"/>
  <line x1="30" y1="36" x2="36" y2="40" stroke="#ea80fc" stroke-width="1.5" stroke-linecap="round" opacity="0.5" stroke-dasharray="2,3"/>
</svg>
