<svg xmlns="http://www.w3.org/2000/svg" viewBox="0 0 64 64">
  <rect x="0" y="0" width="64" height="64" rx="8" fill="#1e2a3a" stroke="#3a5a80" stroke-width="1.5"/>
  <circle cx="32" cy="32" r="22" fill="#0d0a1e" stroke="#7c4dff" stroke-width="2"/>
  <path d="M 32,12 Q 46,20 46,32 Q 46,44 32,52 Q 18,44 18,32 Q 18,20 32,12" fill="#1a0a2e" stroke="none"/>
  <path d="M 32,14 A 18,18 0 0 1 50,32" fill="none" stroke="#7c4dff" stroke-width="3" stroke-linecap="round"/>
  <path d="M 32,50 A 18,18 0 0 1 14,32" fill="none" stroke="#7c4dff" stroke-width="3" stroke-linecap="round"/>
  <line x1="20" y1="20" x2="44" y2="44" stroke="#ff5252" stroke-width="4" stroke-linecap="round"/>
  <line x1="44" y1="20" x2="20" y2="44" stroke="#ff5252" stroke-width="4" stroke-linecap="round"/>
  <circle cx="32" cy="32" r="5" fill="#1a0a2e" stroke="#7c4dff" stroke-width="1.5"/>
  <line x1="52" y1="10" x2="58" y2="6"  stroke="#ffd54f" stroke-width="1.5" stroke-linecap="round"/>
  <line x1="56" y1="14" x2="62" y2="12" stroke="#ffd54f" stroke-width="1.5" stroke-linecap="round"/>
  <line x1="52" y1="54" x2="58" y2="58" stroke="#ffd54f" stroke-width="1.5" stroke-linecap="round"/>
  <line x1="8"  y1="10" x2="4"  y2="6"  stroke="#ffd54f" stroke-width="1.5" stroke-linecap="round"/>
</svg>
