<svg xmlns="http://www.w3.org/2000/svg" viewBox="0 0 64 64">
  <rect x="0" y="0" width="64" height="64" rx="8" fill="#2e1100" stroke="#c03800" stroke-width="1.5"/>
  <line x1="6" y1="20" x2="42" y2="20" stroke="#ff8a65" stroke-width="3" stroke-linecap="round"/>
  <path d="M 42,14 L 58,20 L 42,26 Z" fill="#ff5722"/>
  <path d="M 44,16 L 56,20 L 44,24 Z" fill="#ff8a65"/>
  <line x1="6" y1="32" x2="44" y2="32" stroke="#ff7043" stroke-width="3" stroke-linecap="round"/>
  <path d="M 44,26 L 60,32 L 44,38 Z" fill="#e64a19"/>
  <path d="M 46,28 L 58,32 L 46,36 Z" fill="#ff7043"/>
  <line x1="6" y1="44" x2="42" y2="44" stroke="#ff8a65" stroke-width="3" stroke-linecap="round"/>
  <path d="M 42,38 L 58,44 L 42,50 Z" fill="#ff5722"/>
  <path d="M 44,40 L 56,44 L 44,48 Z" fill="#ff8a65"/>
  <circle cx="8"  cy="20" r="3" fill="#ffd54f" opacity="0.8"/>
  <circle cx="8"  cy="32" r="3" fill="#ffd54f" opacity="0.8"/>
  <circle cx="8"  cy="44" r="3" fill="#ffd54f" opacity="0.8"/>
</svg>
