<svg xmlns="http://www.w3.org/2000/svg" viewBox="0 0 64 64">
  <rect x="0" y="0" width="64" height="64" rx="8" fill="#1e2a3a" stroke="#3a5a80" stroke-width="1.5"/>
  <path d="M 8 54 Q 20 22 56 10" fill="none" stroke="#90a4ae" stroke-width="2" opacity="0.3"/>
  <path d="M 8 58 Q 22 28 56 16" fill="none" stroke="#90a4ae" stroke-width="1.2" opacity="0.2"/>
  <circle cx="10" cy="38" r="6" fill="#ef5350" opacity="0.5"/>
  <line x1="7"  y1="35" x2="13" y2="41" stroke="#ff5252" stroke-width="1.5"/>
  <line x1="7"  y1="41" x2="13" y2="35" stroke="#ff5252" stroke-width="1.5"/>
  <circle cx="52" cy="18" r="6" fill="#ef5350" opacity="0.5"/>
  <line x1="49" y1="15" x2="55" y2="21" stroke="#ff5252" stroke-width="1.5"/>
  <line x1="49" y1="21" x2="55" y2="15" stroke="#ff5252" stroke-width="1.5"/>
  <line x1="36" y1="30" x2="16" y2="50" stroke="#7d5a3a" stroke-width="5" stroke-linecap="round"/>
  <line x1="28" y1="38" x2="24" y2="42" stroke="#5d4037" stroke-width="2.5" stroke-linecap="round" opacity="0.7"/>
  <circle cx="12" cy="54" r="6" fill="#78909c" stroke="#b0bec5" stroke-width="1.2"/>
  <circle cx="12" cy="54" r="3" fill="#546e7a"/>
  <polygon points="30,20 26,26 44,38 48,32" fill="#607d8b" stroke="#78909c" stroke-width="0.8"/>
  <polygon points="56,8 40,24 36,28" fill="#cfd8dc" stroke="#90a4ae" stroke-width="0.8"/>
  <line x1="55" y1="9" x2="39" y2="25" stroke="#eceff1" stroke-width="1" opacity="0.5"/>
</svg>
